HIERARCHY
ROOT Hips
{
	OFFSET -3.958830 18.904000 13.208200
	CHANNELS 6 Xposition Yposition Zposition Zrotation Yrotation Xrotation 
	JOINT LHipJoint
	{
		OFFSET 0.000000 0.000000 0.000000
		CHANNELS 3 Zrotation Yrotation Xrotation
		JOINT LeftUpLeg
		{
			OFFSET 1.800000 -1.400000 0.085000
			CHANNELS 3 Zrotation Yrotation Xrotation
			JOINT LeftLeg
			{
				OFFSET 2.215000 -6.000000 0.000000
				CHANNELS 3 Zrotation Yrotation Xrotation
				JOINT LeftFoot
				{
					OFFSET 2.500000 -6.900000 0.000000
					CHANNELS 3 Zrotation Yrotation Xrotation
					JOINT LeftToeBase
					{
						OFFSET 0.200000 -0.500000 1.950000
						CHANNELS 3 Zrotation Yrotation Xrotation
						End Site
						{
							OFFSET 0.000000 0.000000 0.000000
						}
					}
				}
			}
		}
	}
	JOINT RHipJoint
	{
		OFFSET 0.000000 0.000000 0.000000
		CHANNELS 3 Zrotation Yrotation Xrotation
		JOINT RightUpLeg
		{
			OFFSET -1.800000 -1.400000 0.085000
			CHANNELS 3 Zrotation Yrotation Xrotation
			JOINT RightLeg
			{
				OFFSET -2.215000 -6.000000 0.000000
				CHANNELS 3 Zrotation Yrotation Xrotation
				JOINT RightFoot
				{
					OFFSET -2.500000 -6.900000 0.000000
					CHANNELS 3 Zrotation Yrotation Xrotation
					JOINT RightToeBase
					{
						OFFSET -0.200000 -0.500000 1.950000
						CHANNELS 3 Zrotation Yrotation Xrotation
						End Site
						{
							OFFSET 0.000000 0.000000 0.000000
						}
					}
				}
			}
		}
	}
	JOINT LowerBack
	{
		OFFSET 0.000000 0.000000 0.000000
		CHANNELS 3 Zrotation Yrotation Xrotation
		JOINT Spine
		{
			OFFSET -0.087000 1.940000 -0.288900
			CHANNELS 3 Zrotation Yrotation Xrotation
			JOINT Spine1
			{
				OFFSET 0.000000 1.950000 0.060000
				CHANNELS 3 Zrotation Yrotation Xrotation
				JOINT Neck
				{
					OFFSET 0.000000 0.000000 0.000000
					CHANNELS 3 Zrotation Yrotation Xrotation
					JOINT Neck1
					{
						OFFSET 0.000000 1.600000 0.340000
						CHANNELS 3 Zrotation Yrotation Xrotation
						JOINT Head
						{
							OFFSET 0.000000 1.667000 -0.240000
							CHANNELS 3 Zrotation Yrotation Xrotation
							End Site
							{
								OFFSET 0.000000 0.000000 0.000000
							}
						}
					}
				}
				JOINT LeftShoulder
				{
					OFFSET 0.000000 0.000000 0.000000
					CHANNELS 3 Zrotation Yrotation Xrotation
					JOINT LeftArm
					{
						OFFSET 2.700000 1.550000 -0.730000
						CHANNELS 3 Zrotation Yrotation Xrotation
						JOINT LeftForeArm
						{
							OFFSET 5.450000 0.000000 0.000000
							CHANNELS 3 Zrotation Yrotation Xrotation
							JOINT LeftHand
							{
								OFFSET 3.450000 0.000000 0.000000
								CHANNELS 3 Zrotation Yrotation Xrotation
								JOINT LeftHandIndex1
								{
									OFFSET 0.750000 0.000000 0.000000
									CHANNELS 3 Zrotation Yrotation Xrotation
									End Site
									{
										OFFSET 0.000000 0.000000 0.000000
									}
								}
							}
						}
					}
				}
				JOINT RightShoulder
				{
					OFFSET 0.000000 0.000000 0.000000
					CHANNELS 3 Zrotation Yrotation Xrotation
					JOINT RightArm
					{
						OFFSET -2.700000 1.550000 -0.730000
						CHANNELS 3 Zrotation Yrotation Xrotation
						JOINT RightForeArm
						{
							OFFSET -5.450000 0.000000 0.000000
							CHANNELS 3 Zrotation Yrotation Xrotation
							JOINT RightHand
							{
								OFFSET -3.450000 0.000000 0.000000
								CHANNELS 3 Zrotation Yrotation Xrotation
								JOINT RightHandIndex1
								{
									OFFSET -0.750000 0.000000 0.000000
									CHANNELS 3 Zrotation Yrotation Xrotation
									End Site
									{
										OFFSET 0.000000 0.000000 0.000000
									}
								}
							}
						}
					}
				}
			}
		}
	}
}
MOTION
Frames: 13
Frame Time: 0.016667
2.075190 17.781100 -0.948900 0.640606 -2.730351 -4.249237 -14.871129 13.408060 1.928433 11.773935 0.429268 -10.064267 0.153422 6.919590 26.235242 -0.119374 5.133359 2.761799 0.354290 0.306780 0.221360 18.327737 -12.199853 2.705767 -16.806833 0.169269 -10.014065 5.473269 -4.997256 11.006882 -0.106747 -4.104610 2.897028 0.334340 0.159740 0.172610 -4.042319 1.023156 -6.748540 10.074285 0.621798 4.638134 -1.609634 -0.251955 12.214248 6.568202 1.262740 -11.376152 2.936412 -4.845842 24.340372 -6.250430 -3.052060 -7.363010 -27.178972 -19.304973 10.781988 -46.011798 1.341961 -4.216071 -23.495352 -23.168335 1.816083 -3.751106 3.346583 -0.053250 0.227110 -0.106800 0.131970 14.880473 23.851458 4.090639 9.788335 31.271984 -5.087825 -94.899274 34.542839 -41.065881 2.040239 -1.657670 -0.039810 0.096500 -0.083620 -0.047560 
1.980420 17.776250 -0.947280 0.472789 -1.467343 -4.557353 -14.906160 13.473192 1.903817 11.600449 0.425833 -9.180855 0.688872 6.737510 26.414352 -0.098958 5.141000 2.768037 0.367530 0.324270 0.209670 18.301568 -12.215199 2.651667 -16.108080 -0.074890 -9.304038 5.317819 -5.094669 11.679941 -0.124886 -4.138301 2.896333 0.340410 0.157200 0.160710 -3.971729 0.905020 -6.686952 9.146165 0.559262 4.397426 -1.419206 -0.342500 12.199502 6.207616 1.936135 -11.267255 3.945883 -5.759644 24.449404 -4.760500 -4.343190 -7.605910 -26.613370 -19.236821 10.452699 -43.596314 0.145072 -3.272299 -25.904495 -23.252995 2.489091 -3.730289 3.374279 -0.049170 0.205730 -0.103890 0.145150 15.026081 22.929822 4.310831 9.981770 30.329170 -4.815592 -95.193140 35.940515 -42.392117 2.031385 -1.619731 -0.033120 0.103060 -0.092710 -0.033320 
1.887340 17.758590 -0.953540 0.189844 -1.513881 -4.982763 -14.942035 13.554540 1.922057 11.869316 0.498136 -8.235878 0.406676 7.092535 27.380510 -0.037577 5.357466 2.690785 0.383940 0.347620 0.210080 18.272147 -12.201018 2.592543 -15.084051 -0.275421 -8.876217 4.622204 -4.994880 12.168927 -0.140403 -4.072979 2.932832 0.341440 0.138500 0.150240 -3.869356 0.706942 -6.674638 8.419934 0.461233 4.476839 -0.734327 -0.514281 12.458000 5.780297 2.177646 -11.337841 4.187469 -6.043642 25.242245 -3.785590 -4.955310 -8.118810 -25.714203 -19.789921 10.380073 -41.345596 -1.465428 -2.269763 -28.374352 -24.132375 3.394665 -3.703066 3.391855 -0.032830 0.176940 -0.083950 0.154160 15.057639 23.061583 4.531144 10.408290 30.125197 -4.611013 -94.428674 37.462297 -43.165377 2.023456 -1.554587 -0.021250 0.106990 -0.106490 -0.025240 
1.793740 17.728050 -0.962690 0.131328 -2.315606 -5.366106 -14.964921 13.626875 1.982592 12.145797 0.653040 -6.708526 -0.740381 7.758752 27.853395 0.042490 5.642786 2.608064 0.383890 0.350160 0.193220 18.257167 -12.173353 2.505313 -14.250051 -0.444130 -8.701681 3.213741 -4.695021 12.648654 -0.128574 -3.967234 2.984547 0.339990 0.143630 0.132660 -3.794103 0.460702 -6.674044 7.972164 0.070966 4.320603 0.052442 -1.017199 13.096219 5.129147 1.278287 -11.394753 2.459146 -5.676582 26.510948 -3.135990 -5.457080 -7.829360 -24.349482 -20.818295 10.494318 -39.633324 -3.454272 -1.002374 -29.478241 -23.750411 3.786034 -3.695657 3.388713 -0.033140 0.162010 -0.088330 0.165580 15.147283 24.625942 4.570557 10.078580 31.630576 -4.336653 -92.639889 37.278471 -41.615663 2.037710 -1.536114 -0.021920 0.118440 -0.110340 -0.011900 
1.711860 17.691690 -0.961830 0.293028 -2.504117 -5.730216 -14.997856 13.677311 2.046120 12.218089 0.681076 -5.369992 -1.800115 8.388571 28.526174 0.121502 5.967777 2.513047 0.363350 0.323480 0.181140 18.235655 -12.121892 2.412368 -14.236638 -0.664585 -8.193687 2.043199 -4.518357 12.858123 -0.120565 -3.959747 2.996519 0.324410 0.160230 0.139920 -3.711465 0.189672 -6.667641 7.355900 -0.503796 3.818573 0.849071 -1.742578 13.921599 4.610928 0.592418 -11.726430 1.104652 -4.855159 27.619282 -3.780080 -4.896650 -6.669650 -22.338374 -22.191014 10.789624 -38.192005 -5.804615 0.139933 -31.741337 -26.278815 5.149488 -3.721573 3.407576 -0.046140 0.180920 -0.101180 0.163280 14.303656 26.192525 4.717670 10.018199 32.939039 -4.084100 -90.914030 36.531779 -39.914768 2.042010 -1.548297 -0.024090 0.112380 -0.099100 -0.010430 
1.644440 17.653850 -0.992090 0.554614 -3.113813 -6.028099 -15.015304 13.704094 2.149954 12.051092 0.543511 -4.664087 -3.033644 9.221353 30.063464 0.184917 6.421099 2.362128 0.361770 0.321690 0.184960 18.226312 -12.109077 2.274822 -14.294580 -0.799520 -8.785261 0.502530 -4.284146 13.981270 -0.095598 -3.903245 3.007905 0.337980 0.181460 0.151680 -3.662513 -0.007049 -6.657446 7.074213 -0.799797 3.784997 1.492057 -2.098616 14.680195 4.146301 0.238085 -11.866513 0.389936 -3.966971 28.057182 -4.444480 -4.042510 -6.199490 -19.949168 -23.764970 10.593128 -35.984661 -10.110448 1.981158 -35.412076 -29.942148 7.534288 -3.775738 3.421593 -0.056280 0.212350 -0.114320 0.159000 12.923221 27.621000 4.824577 9.899762 34.233142 -3.971350 -90.162687 35.054630 -38.541153 2.030037 -1.588176 -0.035050 0.120550 -0.085680 -0.019280 
1.594380 17.617240 -1.016110 1.015185 -3.279673 -6.564604 -15.055906 13.725353 2.239445 11.284545 0.241577 -4.101830 -3.600634 9.825851 32.248585 0.247257 6.858488 2.208887 0.394950 0.361010 0.210650 18.199326 -12.067297 2.158604 -14.863391 -1.065060 -8.730370 -0.983237 -4.015626 14.144493 -0.101085 -3.871337 3.007240 0.374320 0.175460 0.152220 -3.566302 -0.246212 -6.647447 6.431347 -0.970064 3.953217 2.594555 -2.297276 15.496161 3.640064 -0.076012 -11.811248 -0.291665 -3.685409 28.446783 -4.598380 -3.989400 -6.875210 -17.659547 -24.938291 10.121150 -34.477238 -15.145836 3.510965 -37.268579 -38.785443 11.556163 -3.771442 3.440665 -0.048340 0.213010 -0.106480 0.160810 11.774756 28.647647 4.862798 8.918962 34.906357 -4.197172 -89.847295 33.752650 -37.303116 2.022685 -1.622912 -0.039550 0.137730 -0.091790 -0.028140 
1.552350 17.558350 -1.029040 1.414300 -2.571826 -6.892085 -15.100197 13.719275 2.337445 10.865320 -0.232249 -3.710944 -4.517506 10.438258 33.933469 0.299244 7.258457 2.067746 0.446750 0.432660 0.241900 18.175139 -11.989740 2.044864 -15.591461 -1.414149 -8.281363 -2.480981 -3.734684 13.786276 -0.122101 -3.869392 3.001930 0.432820 0.170470 0.148200 -3.485930 -0.517137 -6.648417 5.854354 -1.431859 4.021042 3.174808 -2.714958 16.262557 3.169501 -0.024697 -11.648450 -0.360873 -3.616825 28.328802 -4.464470 -4.007430 -7.887570 -15.586844 -26.430207 9.305596 -32.218698 -21.168224 5.416332 -37.457297 -46.869398 15.264359 -3.755691 3.452272 -0.048930 0.215910 -0.096080 0.172080 10.667915 29.507110 5.028141 7.680589 35.323694 -4.500787 -90.657438 32.013285 -36.412933 2.010985 -1.679485 -0.041090 0.163810 -0.110390 -0.031640 
1.520980 17.493390 -1.077020 1.708864 -2.811906 -6.902380 -15.133386 13.740114 2.471639 10.285949 -0.783816 -3.672803 -5.357257 11.088079 35.926576 0.355594 7.690385 1.905105 0.490780 0.486680 0.274270 18.150216 -11.902296 1.953248 -16.051335 -1.643304 -8.741367 -3.956409 -3.402202 13.540787 -0.128181 -3.788485 3.010136 0.476170 0.154440 0.158480 -3.402559 -0.833615 -6.721483 5.854079 -1.832780 4.694773 3.750398 -3.101028 16.675274 2.612470 -0.249706 -11.628785 -0.838037 -3.383889 27.780298 -4.686420 -3.607450 -9.028080 -14.552214 -28.857994 8.515598 -28.064324 -26.667345 6.529528 -34.875941 -54.523371 17.616014 -3.719662 3.483536 -0.037750 0.216410 -0.079900 0.172910 10.702076 31.570196 5.364318 5.399256 35.882358 -5.265824 -90.464343 30.733675 -34.818208 2.012364 -1.712798 -0.038460 0.169960 -0.119550 -0.044360 
1.496070 17.398210 -1.146340 1.999686 -2.741018 -7.148515 -15.181125 13.753610 2.641619 9.745878 -1.527356 -3.993875 -6.478728 11.899715 38.143606 0.431347 8.170005 1.727306 0.557090 0.570740 0.306140 18.113326 -11.787301 1.850433 -16.507867 -1.920196 -9.077464 -5.222397 -3.124992 13.432652 -0.147130 -3.707029 3.021999 0.534980 0.134020 0.146960 -3.286416 -1.214365 -6.822826 5.637171 -2.041078 5.858537 4.129741 -3.195648 17.352586 1.908506 -0.416528 -11.457005 -1.292812 -3.732222 27.368902 -3.609980 -4.197070 -10.936130 -13.005342 -31.803090 6.988609 -22.991311 -33.080608 6.480127 -19.979084 -61.434418 12.192445 -3.609027 3.454334 -0.013720 0.187900 -0.054100 0.189300 10.475184 33.916137 6.080560 2.199373 35.657628 -7.005183 -89.346476 28.600860 -31.953335 2.041521 -1.757172 -0.035490 0.200990 -0.143190 -0.044720 
1.467880 17.295900 -1.218430 2.497891 -2.092466 -7.180010 -15.271059 13.812803 2.780760 9.508617 -2.003576 -4.432349 -7.582440 12.667721 39.470134 0.486775 8.547086 1.594764 0.568630 0.588390 0.310690 18.033619 -11.626348 1.757688 -17.409700 -2.071597 -8.911839 -5.754328 -3.044257 13.265976 -0.153956 -3.693375 3.021356 0.555220 0.137080 0.136410 -3.057373 -1.711992 -6.905875 4.280504 -2.038232 6.791893 5.287746 -3.287045 17.772322 0.862919 0.126732 -11.391463 -0.601510 -4.482512 26.929307 -2.890210 -4.586450 -11.959610 -10.415532 -35.350589 4.808697 -16.012872 -38.818394 5.640798 3.915395 -68.568024 -1.183550 -3.581803 3.279749 0.005610 0.181060 -0.048690 0.189130 9.840340 36.271915 7.387741 -0.307371 34.599000 -8.922404 -88.772925 25.165049 -28.501548 2.085169 -1.813256 -0.049860 0.230090 -0.137670 -0.050570 
1.433770 17.182160 -1.287500 2.613776 -2.120319 -7.209341 -15.316782 13.839409 2.894235 9.835055 -2.322587 -4.660428 -8.942986 13.588598 40.343375 0.541372 8.916521 1.453473 0.583760 0.603890 0.340160 18.002277 -11.465568 1.690119 -18.016255 -2.103645 -8.696063 -5.350518 -3.164071 13.264717 -0.167404 -3.707057 3.000339 0.567950 0.115580 0.150810 -2.949599 -2.106909 -6.957033 3.878383 -2.299135 7.520808 5.274324 -3.877314 18.499641 0.046078 0.655282 -11.249011 0.057309 -4.718938 26.465260 -3.583840 -4.027470 -12.679170 -7.746388 -38.616369 2.973287 -6.516710 -43.623235 2.973086 38.804162 -64.415590 -20.318203 -3.700728 2.818464 0.020710 0.184490 -0.031450 0.174390 8.601015 38.588806 8.381673 -1.170438 34.810343 -9.935002 -87.817746 22.340028 -25.892615 2.113892 -1.858591 -0.048260 0.222810 -0.135560 -0.071190 
1.407840 17.049530 -1.343210 2.166952 -2.146761 -7.107901 -15.370669 13.936333 2.979087 11.041008 -2.416937 -5.266886 -9.786633 14.526803 41.380873 0.612481 9.272882 1.324387 0.587050 0.606500 0.353090 17.955965 -11.291576 1.640768 -17.890059 -1.888899 -8.291390 -5.064245 -3.152430 13.391140 -0.179772 -3.679078 3.010193 0.565690 0.101340 0.152420 -2.806033 -2.569448 -7.019429 3.637464 -2.436881 8.626571 6.461380 -5.085182 19.525204 -1.306142 1.280587 -11.883735 1.007800 -4.718866 25.151496 -3.327510 -3.543170 -13.343570 -4.502355 -42.111542 2.565091 10.146428 -47.535494 -4.427378 57.365862 -53.637051 -24.762836 -4.024018 2.778422 0.037230 0.175990 -0.016700 0.171780 7.812380 41.386867 9.126765 -2.841114 35.019597 -11.636018 -88.016971 19.782041 -23.956800 2.177550 -1.892875 -0.050230 0.216470 -0.142920 -0.080300 
